# Blender v2.82 (sub 7) OBJ File: ''
# www.blender.org
o o_Cube_Cube.001_o_Cube_Cube.001
v 1.900000 1.700000 -1.900000
v -1.899999 1.700001 -1.900000
v -1.897573 1.700001 -1.897573
v 1.897573 1.700000 -1.897573
v -1.900000 1.700000 1.900000
v 1.900001 1.699998 1.900000
v 1.897574 1.699998 1.897574
v -1.897573 1.700000 1.897574
v -1.896922 1.696922 1.900000
v 1.896923 1.696921 1.900000
v -1.900001 -2.099999 1.900000
v -1.896923 -2.096922 1.900000
v 1.899999 -2.100001 1.900000
v 1.896921 -2.096924 1.900000
v -1.900000 -2.099999 -1.900000
v -1.900000 -2.097671 -1.897672
v -1.899999 1.697673 -1.897672
v -1.900000 1.697672 1.897672
v -1.900001 -2.097671 1.897672
v 1.900000 -2.100000 -1.900000
v 1.900000 1.695866 -1.895866
v 1.900000 -2.095866 -1.895867
v 1.899999 -2.095868 1.895866
v 1.900001 1.695865 1.895867
v 1.897068 -2.100000 -1.897068
v -1.897068 -2.099999 -1.897068
v -1.897068 -2.099999 1.897067
v 1.897067 -2.100001 1.897067
v 1.897035 -2.097035 -1.900000
v 1.897035 1.697036 -1.900000
v -1.897036 -2.097035 -1.900000
v -1.897035 1.697036 -1.900000
vt 0.000000 0.000000
vt 0.000000 0.000000
vt 0.000000 0.000000
vt 0.000000 0.000000
vt 0.000000 0.000000
vt 0.000000 0.000000
vt 0.000000 0.000000
vt 0.000000 0.000000
vt 1.000000 1.000000
vt 0.000000 1.000000
vt 0.000000 0.000000
vt 0.000000 0.000000
vt 0.000000 0.000000
vt 0.000000 0.000000
vt 0.000000 0.000000
vt 0.000000 0.000000
vt 0.000000 1.000000
vt 1.000000 0.000000
vt 1.000000 1.000000
vt 0.000000 0.000000
vt 0.000000 0.000000
vt 0.000000 0.000000
vt 0.000000 0.000000
vt 0.000000 0.000000
vt 1.000000 1.000000
vt 0.000000 1.000000
vt 0.000000 0.000000
vt 0.000000 0.000000
vt 0.000000 0.000000
vt 0.000000 0.000000
vt 0.000000 0.000000
vt 1.000000 1.000000
vt 0.000000 1.000000
vt 0.000000 0.000000
vt 0.000000 0.000000
vt 0.000000 0.000000
vt 0.000000 0.000000
vt 0.000000 1.000000
vt 1.000000 0.000000
vt 1.000000 1.000000
vt 0.000000 0.000000
vt 0.000000 0.000000
vt 0.000000 0.000000
vt 0.000000 0.000000
vt 1.000000 1.000000
vt 0.000000 1.000000
vt 1.000000 0.000000
vt 1.000000 0.000000
vt 1.000000 0.000000
vt 1.000000 0.000000
vn -0.5773 0.5774 -0.5773
vn 0.0000 1.0000 0.0000
vn 0.5774 0.5773 -0.5773
vn 0.5773 0.5774 0.5774
vn -0.5773 0.5773 0.5774
vn -0.0000 -0.0000 1.0000
vn -0.5774 -0.5774 0.5773
vn 0.5774 -0.5774 0.5773
vn -0.5774 -0.5773 -0.5773
vn -1.0000 0.0000 -0.0000
vn 1.0000 -0.0000 0.0000
vn 0.5773 -0.5774 -0.5774
vn -0.0000 -1.0000 0.0000
vn 0.0000 0.0000 -1.0000
s 1
f 2/1/1 4/2/2 1/3/3
f 6/4/4 8/5/2 5/6/5
f 1/3/3 7/7/2 6/4/4
f 5/6/5 3/8/2 2/1/1
f 3/8/2 7/9/2 4/10/2
f 5/6/5 10/11/6 6/4/4
f 11/12/7 9/13/6 5/6/5
f 13/14/8 12/15/6 11/12/7
f 6/4/4 14/16/6 13/14/8
f 10/17/6 12/18/6 14/19/6
f 15/20/9 17/21/10 2/1/1
f 5/6/5 19/22/10 11/12/7
f 11/12/7 16/23/10 15/20/9
f 2/1/1 18/24/10 5/6/5
f 19/25/10 17/21/10 16/26/10
f 1/3/3 22/27/11 20/28/12
f 13/14/8 24/29/11 6/4/4
f 1/3/3 24/29/11 21/30/11
f 20/28/12 23/31/11 13/14/8
f 24/32/11 22/27/11 21/33/11
f 20/28/12 26/34/13 15/20/9
f 11/12/7 28/35/13 13/14/8
f 13/14/8 25/36/13 20/28/12
f 15/20/9 27/37/13 11/12/7
f 26/38/13 28/39/13 27/40/13
f 20/28/12 30/41/14 1/3/3
f 15/20/9 29/42/14 20/28/12
f 2/1/1 31/43/14 15/20/9
f 1/3/3 32/44/14 2/1/1
f 29/42/14 32/45/14 30/46/14
f 2/1/1 3/8/2 4/2/2
f 6/4/4 7/7/2 8/5/2
f 1/3/3 4/2/2 7/7/2
f 5/6/5 8/5/2 3/8/2
f 3/8/2 8/47/2 7/9/2
f 5/6/5 9/13/6 10/11/6
f 11/12/7 12/15/6 9/13/6
f 13/14/8 14/16/6 12/15/6
f 6/4/4 10/11/6 14/16/6
f 10/17/6 9/13/6 12/18/6
f 15/20/9 16/23/10 17/21/10
f 5/6/5 18/24/10 19/22/10
f 11/12/7 19/22/10 16/23/10
f 2/1/1 17/21/10 18/24/10
f 19/25/10 18/48/10 17/21/10
f 1/3/3 21/30/11 22/27/11
f 13/14/8 23/31/11 24/29/11
f 1/3/3 6/4/4 24/29/11
f 20/28/12 22/27/11 23/31/11
f 24/32/11 23/49/11 22/27/11
f 20/28/12 25/36/13 26/34/13
f 11/12/7 27/37/13 28/35/13
f 13/14/8 28/35/13 25/36/13
f 15/20/9 26/34/13 27/37/13
f 26/38/13 25/36/13 28/39/13
f 20/28/12 29/42/14 30/41/14
f 15/20/9 31/43/14 29/42/14
f 2/1/1 32/44/14 31/43/14
f 1/3/3 30/41/14 32/44/14
f 29/42/14 31/50/14 32/45/14
